<svg width="24" height="24" viewBox="0 0 24 24" fill="none" xmlns="http://www.w3.org/2000/svg">
<path d="M10.2501 23C9.56106 23 9.00006 22.4395 9.00006 21.75V13L6.77506 13.0015C6.09156 13.0015 5.53056 12.4465 5.52456 11.7635L5.51006 10.262C5.50706 9.9255 5.63506 9.609 5.87206 9.3705C6.10806 9.1315 6.42356 9 6.76006 9H9.00006V6.75C9.00006 3.377 10.7211 1.519 13.8456 1.519C15.0816 1.519 16.1606 1.6065 16.1706 1.6075C16.6531 1.6505 17.0161 2.0475 17.0161 2.531V4.816C17.0161 5.327 16.6001 5.743 16.0891 5.743H14.6351C14.0266 5.743 13.5311 6.238 13.5311 6.847L13.5031 9H15.7221C16.0786 9 16.4186 9.153 16.6556 9.419C16.8926 9.685 17.0051 10.0405 16.9636 10.3945L16.7891 11.8945C16.7161 12.525 16.1821 13 15.5481 13H13.5001V21.75C13.5001 22.4395 12.9391 23 12.2501 23H10.2501Z" fill="#1D1D1B"/>
</svg>
