<svg width="21" height="21" viewBox="0 0 21 21" fill="none" xmlns="http://www.w3.org/2000/svg">
<path d="M15.9688 2.625H5.03125C3.70475 2.625 2.625 3.70475 2.625 5.03125V15.9688C2.625 17.2952 3.70475 18.375 5.03125 18.375H15.9688C17.2952 18.375 18.375 17.2952 18.375 15.9688V5.03125C18.375 3.70475 17.2952 2.625 15.9688 2.625ZM7.875 14.875C7.875 15.1169 7.67944 15.3125 7.4375 15.3125H6.125C5.88306 15.3125 5.6875 15.1169 5.6875 14.875V9.1875C5.6875 8.94556 5.88306 8.75 6.125 8.75H7.4375C7.67944 8.75 7.875 8.94556 7.875 9.1875V14.875ZM6.78125 7.875C6.17706 7.875 5.6875 7.38544 5.6875 6.78125C5.6875 6.17706 6.17706 5.6875 6.78125 5.6875C7.38544 5.6875 7.875 6.17706 7.875 6.78125C7.875 7.38544 7.38544 7.875 6.78125 7.875ZM15.3125 14.875C15.3125 15.1169 15.1169 15.3125 14.875 15.3125H13.5625C13.3206 15.3125 13.125 15.1169 13.125 14.875V11.5938C13.125 10.9904 12.6346 10.5 12.0312 10.5C11.4279 10.5 10.9375 10.9904 10.9375 11.5938V14.875C10.9375 15.1169 10.7419 15.3125 10.5 15.3125H9.1875C8.94556 15.3125 8.75 15.1169 8.75 14.875V9.1875C8.75 8.94556 8.94556 8.75 9.1875 8.75H10.5C10.7419 8.75 10.9375 8.94556 10.9375 9.1875V9.42419C11.4026 9.00638 12.0146 8.75 12.6875 8.75C14.1352 8.75 15.3125 9.92731 15.3125 11.375V14.875Z" fill="white"/>
</svg>
