<svg width="23" height="23" viewBox="0 0 23 23" fill="none" xmlns="http://www.w3.org/2000/svg">
<g id="icons8_twitter 1">
<path id="Vector" d="M21.4279 4.93781C21.2865 4.79167 21.069 4.74998 20.8835 4.83527L20.805 4.87121C20.7384 4.90188 20.6718 4.93254 20.6047 4.96273C20.7997 4.65175 20.9545 4.31921 21.0613 3.97517C21.1207 3.78542 21.056 3.57794 20.8989 3.45527C20.7417 3.3326 20.5251 3.31967 20.355 3.42365C19.8083 3.75571 19.2831 3.99481 18.7402 4.16156C17.9209 3.36663 16.8049 2.875 15.5729 2.875C13.0588 2.875 11.0209 4.9129 11.0209 7.42708C11.0209 7.42948 11.0209 7.52435 11.0209 7.66667L10.5422 7.62833C5.88323 7.07729 4.5569 3.94354 4.5018 3.80842C4.41267 3.58321 4.21621 3.41885 3.97902 3.3695C3.74232 3.31919 3.4965 3.39346 3.32496 3.56452C3.23009 3.65988 2.39586 4.5425 2.39586 6.22917C2.39586 7.43092 2.93157 8.40554 3.62492 9.16358C3.30196 8.96665 3.11365 8.80708 3.10886 8.80277C2.88796 8.61015 2.57171 8.5699 2.30913 8.7031C2.0475 8.83679 1.89321 9.11615 1.91957 9.40892C1.92867 9.51002 2.1328 11.4276 4.34798 12.8757L3.94405 12.949C3.69919 12.9936 3.49459 13.1617 3.40355 13.3937C3.31298 13.6261 3.34844 13.8882 3.49794 14.0875C3.54825 14.1551 4.48407 15.3717 6.51621 16.0712C5.4309 16.433 3.93973 16.7708 2.15628 16.7708C1.87453 16.7708 1.61817 16.9357 1.50173 17.1925C1.38482 17.4493 1.42938 17.7507 1.6153 17.9625C1.69244 18.0512 3.56263 20.125 8.38544 20.125C16.3938 20.125 20.125 12.6907 20.125 7.66667V7.42708C20.125 7.35617 20.1174 7.28669 20.1145 7.21673C21.1169 6.24785 21.494 5.52096 21.5122 5.48502C21.6028 5.30294 21.5692 5.08348 21.4279 4.93781Z" fill="#1D1D1B"/>
</g>
</svg>
