<svg width="21" height="21" viewBox="0 0 21 21" fill="none" xmlns="http://www.w3.org/2000/svg">
<path d="M5.03125 2.625C3.7101 2.625 2.625 3.7101 2.625 5.03125V15.9688C2.625 17.2899 3.7101 18.375 5.03125 18.375H15.9688C17.2899 18.375 18.375 17.2899 18.375 15.9688V5.03125C18.375 3.7101 17.2899 2.625 15.9688 2.625H5.03125ZM12.0312 4.8125C12.3944 4.8125 12.6875 5.10562 12.6875 5.46875C12.6875 6.79437 13.7681 7.875 15.0938 7.875C15.4569 7.875 15.75 8.16813 15.75 8.53125C15.75 8.89437 15.4569 9.1875 15.0938 9.1875C14.175 9.1875 13.335 8.85521 12.6875 8.30396V12.6875C12.6875 14.6169 11.1169 16.1875 9.1875 16.1875C7.25813 16.1875 5.6875 14.6169 5.6875 12.6875C5.6875 10.7581 7.25813 9.1875 9.1875 9.1875C9.27938 9.1875 9.37087 9.19167 9.45837 9.19604C9.8215 9.22667 10.0931 9.54225 10.0625 9.901C10.0363 10.2641 9.72152 10.5348 9.3584 10.5085C9.30152 10.5042 9.24438 10.5 9.1875 10.5C7.98 10.5 7 11.48 7 12.6875C7 13.895 7.98 14.875 9.1875 14.875C10.395 14.875 11.375 13.895 11.375 12.6875V5.46875C11.375 5.10562 11.6681 4.8125 12.0312 4.8125Z" fill="white"/>
</svg>
