<svg width="21" height="21" viewBox="0 0 21 21" fill="none" xmlns="http://www.w3.org/2000/svg">
<path d="M10.5 1.75C5.67525 1.75 1.75 5.67525 1.75 10.5C1.75 14.2835 4.16806 17.5044 7.53681 18.7224C7.50181 18.1904 7.4375 17.1587 7.4375 16.8074C7.4375 15.932 7.53769 15.6691 7.53769 15.6691L8.5295 11.5439C8.38294 11.1151 8.3125 10.6343 8.3125 10.1854C8.3125 9.35812 8.84581 8.53125 9.625 8.53125C10.2034 8.53125 10.7187 8.96875 10.7187 9.82319C10.7187 10.0765 10.6837 10.374 10.5958 10.7218L10.2616 12.0444C10.1614 12.4228 10.0839 13.1508 10.4094 13.5782C10.5949 13.8211 10.9187 13.9676 11.375 14C13.1784 14 14 12.0724 14 10.2812C14 6.66662 10.8579 6.5625 10.5 6.5625C8.32869 6.5625 6.5625 8.18169 6.5625 10.1719C6.5625 11.0184 6.825 11.6419 7.13825 12.0903C7.20081 12.18 7.22575 12.2898 7.19994 12.3961L6.95537 13.4129C6.92125 13.5551 6.74362 13.6132 6.63819 13.5122C5.75356 12.6621 5.25 11.4756 5.25 10.1719C5.25 7.45806 7.60506 5.25 10.5 5.25C13.4929 5.25 15.75 7.36619 15.75 10.1719C15.75 13.0064 13.8854 15.3125 11.5937 15.3125C10.7446 15.3125 10.0796 15.0837 9.60662 14.637L9.156 16.4202C8.92894 17.2471 8.652 18.0036 7.92969 18.8632C8.743 19.1139 9.60575 19.25 10.5 19.25C15.3247 19.25 19.25 15.3247 19.25 10.5C19.25 5.67525 15.3247 1.75 10.5 1.75Z" fill="white"/>
</svg>
