<svg width="21" height="21" viewBox="0 0 21 21" fill="none" xmlns="http://www.w3.org/2000/svg">
<path d="M10.4376 3.71875C7.65831 3.71875 5.07603 3.91677 3.60254 4.22461C3.5994 4.22544 3.59627 4.2263 3.59314 4.22717C2.48302 4.47593 1.43771 5.2711 1.21765 6.51636C1.21736 6.51806 1.21707 6.51977 1.2168 6.52148C1.04774 7.52512 0.875 8.83343 0.875 10.7187C0.875 12.6005 1.04833 13.8741 1.26208 14.9305C1.48753 16.1391 2.50872 16.9583 3.63586 17.2103C3.64126 17.2118 3.64667 17.2132 3.6521 17.2146C5.18994 17.5176 7.69933 17.7187 10.4786 17.7187C13.2579 17.7187 15.7687 17.5176 17.3069 17.2146C17.3123 17.2132 17.3177 17.2118 17.3231 17.2103C18.4332 16.9616 19.4786 16.1664 19.6986 14.9211C19.6992 14.918 19.6998 14.9149 19.7003 14.9117C19.8668 13.8876 20.0825 12.5806 20.125 10.6923C20.1251 10.6874 20.1251 10.6826 20.125 10.6777C20.125 8.78837 19.9087 7.47192 19.6978 6.4292C19.4741 5.21809 18.4517 4.39665 17.3231 4.14429C17.3059 4.14045 17.2885 4.13732 17.271 4.13489C15.7703 3.92392 13.2174 3.71875 10.4376 3.71875ZM8.81836 7.43835C8.98041 7.435 9.14792 7.47333 9.30542 7.56226L13.0695 9.68909C13.7043 10.0478 13.7043 10.953 13.0695 11.3118L9.30542 13.4386C8.67586 13.7938 7.89124 13.3439 7.89124 12.6268V8.37317C7.89124 7.83537 8.3322 7.4484 8.81836 7.43835Z" fill="white"/>
</svg>
