<svg width="21" height="21" viewBox="0 0 21 21" fill="none" xmlns="http://www.w3.org/2000/svg">
<path d="M7.21875 2.1875C4.44456 2.1875 2.1875 4.44456 2.1875 7.21875V13.7813C2.1875 16.5554 4.44456 18.8125 7.21875 18.8125H13.7813C16.5554 18.8125 18.8125 16.5554 18.8125 13.7813V7.21875C18.8125 4.44456 16.5554 2.1875 13.7813 2.1875H7.21875ZM14.875 5.25C15.3584 5.25 15.75 5.64156 15.75 6.125C15.75 6.608 15.3584 7 14.875 7C14.3916 7 14 6.608 14 6.125C14 5.64156 14.3916 5.25 14.875 5.25ZM10.5 6.125C12.9124 6.125 14.875 8.08763 14.875 10.5C14.875 12.9124 12.9124 14.875 10.5 14.875C8.08763 14.875 6.125 12.9124 6.125 10.5C6.125 8.08763 8.08763 6.125 10.5 6.125ZM10.5 7.4375C10.0978 7.4375 9.69959 7.51671 9.32803 7.67062C8.95647 7.82452 8.61887 8.05011 8.33449 8.33449C8.05011 8.61887 7.82452 8.95647 7.67062 9.32803C7.51671 9.69959 7.4375 10.0978 7.4375 10.5C7.4375 10.9022 7.51671 11.3004 7.67062 11.672C7.82452 12.0435 8.05011 12.3811 8.33449 12.6655C8.61887 12.9499 8.95647 13.1755 9.32803 13.3294C9.69959 13.4833 10.0978 13.5625 10.5 13.5625C10.9022 13.5625 11.3004 13.4833 11.672 13.3294C12.0435 13.1755 12.3811 12.9499 12.6655 12.6655C12.9499 12.3811 13.1755 12.0435 13.3294 11.672C13.4833 11.3004 13.5625 10.9022 13.5625 10.5C13.5625 10.0978 13.4833 9.69959 13.3294 9.32803C13.1755 8.95647 12.9499 8.61887 12.6655 8.33449C12.3811 8.05011 12.0435 7.82452 11.672 7.67062C11.3004 7.51671 10.9022 7.4375 10.5 7.4375Z" fill="white"/>
</svg>
